<?xml version="1.0" encoding="UTF-8"?>
<svg viewBox="0 0 1000 780" xmlns="http://www.w3.org/2000/svg" font-family="system-ui, -apple-system, sans-serif">
  <defs>
    <radialGradient id="bg" cx="45%" cy="42%">
      <stop offset="0%" stop-color="#1a1a2e"/>
      <stop offset="100%" stop-color="#0a0a1a"/>
    </radialGradient>
    <filter id="glow"><feGaussianBlur stdDeviation="2.5" result="blur"/><feMerge><feMergeNode in="blur"/><feMergeNode in="SourceGraphic"/></feMerge></filter>
    <filter id="softglow"><feGaussianBlur stdDeviation="4" result="blur"/><feMerge><feMergeNode in="blur"/><feMergeNode in="SourceGraphic"/></feMerge></filter>
    <marker id="arrow" markerWidth="6" markerHeight="6" refX="3" refY="3" orient="auto">
      <path d="M0,0 L6,3 L0,6 Z" fill="#ffffff66"/>
    </marker>
  </defs>

  <!-- Background -->
  <rect width="1000" height="780" fill="url(#bg)"/>

  <!-- Title -->
  <text x="500" y="36" font-size="20" font-weight="800" fill="#e85d04" text-anchor="middle" letter-spacing="2">MELBOURNE TRIP MAP — JULY 1–10, 2025</text>
  <text x="500" y="56" font-size="12" fill="#6666aa" text-anchor="middle">2 travelers · Route overview with driving distances</text>

  <!-- Map border -->
  <rect x="30" y="68" width="940" height="620" fill="none" stroke="#2a2a4a" stroke-width="1" rx="12"/>

  <!-- Melbourne CBD zoom box -->
  <rect x="580" y="340" width="380" height="280" fill="#0f1629" stroke="#e85d04" stroke-width="1.5" rx="8" opacity="0.95"/>
  <text x="770" y="360" font-size="13" font-weight="700" fill="#e85d04" text-anchor="middle">MELBOURNE CBD DETAIL</text>
  <text x="770" y="376" font-size="10" fill="#6666aa" text-anchor="middle">Zoomed-in walking zone</text>

  <!-- GREAT OCEAN ROAD route -->
  <path d="M 640 380 Q 600 310 540 260 Q 480 210 420 190 Q 360 175 320 200 Q 290 220 265 270"
        fill="none" stroke="#f97316" stroke-width="3" stroke-dasharray="10,5" opacity="0.8" filter="url(#glow)"/>
  <!-- GOR label -->
  <rect x="360" y="168" width="160" height="22" fill="#f9731633" rx="4"/>
  <text x="440" y="183" font-size="11" font-weight="700" fill="#f97316" text-anchor="middle">GREAT OCEAN ROAD</text>
  <text x="440" y="196" font-size="9" fill="#f97316aa" text-anchor="middle">Day 2 · 95km to Lorne</text>

  <!-- GREAT OCEAN ROAD stops -->
  <!-- Lorne -->
  <circle cx="450" cy="238" r="8" fill="#f97316" filter="url(#glow)"/>
  <text x="450" y="226" font-size="10" font-weight="600" fill="#f97316" text-anchor="middle">Lorne</text>
  <text x="450" y="254" font-size="8" fill="#f97316aa" text-anchor="middle">1h40 from CBD</text>

  <!-- Apollo Bay -->
  <circle cx="360" cy="215" r="8" fill="#f97316" filter="url(#glow)"/>
  <text x="360" y="203" font-size="10" font-weight="600" fill="#f97316" text-anchor="middle">Apollo Bay</text>
  <text x="360" y="231" font-size="8" fill="#f97316aa" text-anchor="middle">Lunch stop</text>

  <!-- Twelve Apostles -->
  <circle cx="260" cy="270" r="9" fill="#f97316" filter="url(#glow)"/>
  <text x="260" y="256" font-size="10" font-weight="600" fill="#f97316" text-anchor="middle">12 Apostles</text>
  <text x="260" y="287" font-size="8" fill="#f97316aa" text-anchor="middle">14:30-16:00</text>

  <!-- Loch Ard -->
  <circle cx="252" cy="285" r="6" fill="#f97316" opacity="0.8"/>
  <text x="252" y="298" font-size="9" font-weight="600" fill="#f97316" text-anchor="middle">Loch Ard</text>

  <!-- Day 3: Sovereign Hill -->
  <path d="M 640 380 Q 630 420 610 480 Q 595 520 570 540"
        fill="none" stroke="#fbbf24" stroke-width="2.5" stroke-dasharray="8,4" opacity="0.8" filter="url(#glow)"/>
  <circle cx="570" cy="540" r="9" fill="#fbbf24" filter="url(#glow)"/>
  <text x="570" y="526" font-size="11" font-weight="700" fill="#fbbf24" text-anchor="middle">SOVEREIGN HILL</text>
  <text x="570" y="558" font-size="9" fill="#fbbf24aa" text-anchor="middle">Ballarat · 115km NW</text>
  <rect x="455" y="518" width="110" height="30" fill="#fbbf2433" rx="4"/>
  <text x="510" y="531" font-size="9" fill="#fbbf24" text-anchor="middle">Day 3 · Jul 3</text>
  <text x="510" y="543" font-size="8" fill="#fbbf24aa" text-anchor="middle">~$85/p AUD</text>

  <!-- Day 6: Puffing Billy + Phillip Island -->
  <path d="M 640 380 Q 680 330 710 310 Q 740 295 760 295"
        fill="none" stroke="#a78bfa" stroke-width="2.5" stroke-dasharray="8,4" opacity="0.8" filter="url(#glow)"/>
  <!-- Puffing Billy -->
  <circle cx="760" cy="295" r="9" fill="#a78bfa" filter="url(#glow)"/>
  <text x="760" y="281" font-size="10" font-weight="600" fill="#a78bfa" text-anchor="middle">Puffing Billy</text>
  <text x="760" y="313" font-size="8" fill="#a78bfaaa" text-anchor="middle">Belgrave · Day 6</text>

  <!-- Phillip Island -->
  <path d="M 760 295 Q 780 270 795 255 Q 810 240 815 235"
        fill="none" stroke="#3b82f6" stroke-width="2.5" opacity="0.8"/>
  <circle cx="815" cy="235" r="10" fill="#3b82f6" filter="url(#glow)"/>
  <text x="815" y="221" font-size="11" font-weight="700" fill="#3b82f6" text-anchor="middle">PHILLIP ISLAND</text>
  <text x="815" y="252" font-size="9" fill="#3b82f6aa" text-anchor="middle">Penguin Parade · Day 6</text>
  <text x="815" y="264" font-size="8" fill="#3b82f6aa" text-anchor="middle">90km · 7AM-10PM</text>

  <!-- Day 7-8: Mornington Peninsula -->
  <path d="M 640 380 Q 700 400 740 420 Q 780 435 800 450 Q 810 460 820 470"
        fill="none" stroke="#a855f7" stroke-width="3" opacity="0.9" filter="url(#glow)"/>
  <circle cx="820" cy="470" r="10" fill="#a855f7" filter="url(#glow)"/>
  <text x="820" y="456" font-size="11" font-weight="700" fill="#a855f7" text-anchor="middle">RYE</text>
  <text x="820" y="488" font-size="8" fill="#a855f7aa" text-anchor="middle">Mornington Peninsula</text>
  <text x="820" y="500" font-size="8" fill="#a855f7aa" text-anchor="middle">75km S · Day 7-8</text>
  <!-- Hot springs -->
  <circle cx="855" cy="455" r="7" fill="#f472b6" filter="url(#glow)"/>
  <text x="855" y="443" font-size="9" font-weight="600" fill="#f472b6" text-anchor="middle">Hot Springs</text>
  <text x="855" y="470" font-size="8" fill="#f472b6aa" text-anchor="middle">Mt Martha</text>
  <!-- Arrow to hot springs -->
  <path d="M 827 464 Q 840 460 850 456" fill="none" stroke="#f472b6" stroke-width="1" marker-end="url(#arrow)"/>

  <!-- Day 9: Yarra Valley -->
  <path d="M 640 380 Q 700 330 750 300 Q 780 280 810 275"
        fill="none" stroke="#06b6d4" stroke-width="3" opacity="0.9" filter="url(#glow)"/>
  <circle cx="810" cy="275" r="11" fill="#06b6d4" filter="url(#glow)"/>
  <text x="810" y="261" font-size="11" font-weight="700" fill="#06b6d4" text-anchor="middle">YARRA VALLEY</text>
  <text x="810" y="293" font-size="8" fill="#06b6d4aa" text-anchor="middle">Day 9 · 60km NE</text>
  <!-- Healesville -->
  <circle cx="840" cy="268" r="7" fill="#34d399" filter="url(#glow)"/>
  <text x="840" y="256" font-size="9" font-weight="600" fill="#34d399" text-anchor="middle">Healesville</text>
  <text x="840" y="282" font-size="8" fill="#34d399aa" text-anchor="middle">Sanctuary</text>

  <!-- Melbourne CBD center marker -->
  <circle cx="640" cy="380" r="14" fill="#e85d04" filter="url(#softglow)"/>
  <circle cx="640" cy="380" r="8" fill="white" opacity="0.9"/>
  <text x="640" y="415" font-size="13" font-weight="800" fill="#e85d04" text-anchor="middle">MELBOURNE CBD</text>
  <text x="640" y="430" font-size="10" fill="#888888" text-anchor="middle">Home base Days 1-6, 8-10</text>

  <!-- Melbourne CBD detail (zoomed area) -->
  <!-- QVM -->
  <circle cx="690" cy="415" r="6" fill="#4ade80" filter="url(#glow)"/>
  <text x="690" y="405" font-size="9" font-weight="600" fill="#4ade80" text-anchor="middle">QVM</text>
  <!-- Fed Square -->
  <circle cx="655" cy="410" r="5" fill="#60a5fa"/>
  <text x="655" y="425" font-size="8" fill="#60a5fa" text-anchor="middle">Fed Sq</text>
  <!-- Fitzroy -->
  <circle cx="630" cy="365" r="6" fill="#a78bfa"/>
  <text x="630" y="355" font-size="9" font-weight="600" fill="#a78bfa" text-anchor="middle">Fitzroy</text>
  <!-- St Kilda -->
  <circle cx="660" cy="445" r="6" fill="#f472b6"/>
  <text x="660" y="460" font-size="9" font-weight="600" fill="#f472b6" text-anchor="middle">St Kilda</text>

  <!-- Legend -->
  <rect x="40" y="440" width="180" height="230" fill="#0f1629" stroke="#2a2a4a" rx="8" opacity="0.9"/>
  <text x="130" y="460" font-size="12" font-weight="700" fill="#8888aa" text-anchor="middle">LEGEND</text>
  <line x1="55" y1="468" x2="205" y2="468" stroke="#2a2a4a" stroke-width="1"/>

  <circle cx="70" cy="486" r="6" fill="#e85d04" filter="url(#glow)"/>
  <text x="88" y="490" font-size="11" fill="#e8e8f0">Melbourne CBD</text>

  <circle cx="70" cy="508" r="6" fill="#f97316" filter="url(#glow)"/>
  <text x="88" y="512" font-size="11" fill="#e8e8f0">Great Ocean Road</text>

  <circle cx="70" cy="530" r="6" fill="#fbbf24" filter="url(#glow)"/>
  <text x="88" y="534" font-size="11" fill="#e8e8f0">Sovereign Hill</text>

  <circle cx="70" cy="552" r="6" fill="#a78bfa" filter="url(#glow)"/>
  <text x="88" y="556" font-size="11" fill="#e8e8f0">Puffing Billy</text>

  <circle cx="70" cy="574" r="6" fill="#3b82f6" filter="url(#glow)"/>
  <text x="88" y="578" font-size="11" fill="#e8e8f0">Phillip Island</text>

  <circle cx="70" cy="596" r="6" fill="#a855f7" filter="url(#glow)"/>
  <text x="88" y="600" font-size="11" fill="#e8e8f0">Mornington Pen.</text>

  <circle cx="70" cy="618" r="6" fill="#06b6d4" filter="url(#glow)"/>
  <text x="88" y="622" font-size="11" fill="#e8e8f0">Yarra Valley</text>

  <circle cx="70" cy="640" r="6" fill="#4ade80"/>
  <text x="88" y="644" font-size="11" fill="#e8e8f0">Melbourne local</text>

  <line x1="55" y1="656" x2="205" y2="656" stroke="#2a2a4a" stroke-width="1"/>
  <line x1="60" y1="672" x2="90" y2="672" stroke="#f97316" stroke-width="2" stroke-dasharray="8,4"/>
  <text x="100" y="676" font-size="10" fill="#8888aa">Driving route</text>

  <!-- Distance reference -->
  <rect x="40" y="698" width="180" height="60" fill="#0f1629" stroke="#2a2a4a" rx="8" opacity="0.9"/>
  <text x="130" y="714" font-size="11" font-weight="700" fill="#8888aa" text-anchor="middle">DISTANCES FROM MELBOURNE CBD</text>
  <text x="60" y="732" font-size="10" fill="#e8e8f0">Lorne (GOR): 95km</text>
  <text x="60" y="746" font-size="10" fill="#e8e8f0">12 Apostles: 230km</text>
  <text x="160" y="732" font-size="10" fill="#e8e8f0">Ballarat: 115km</text>
  <text x="160" y="746" font-size="10" fill="#e8e8f0">Yarra Valley: 60km</text>

  <!-- Day 4-5 CBD walks -->
  <rect x="560" y="680" width="400" height="75" fill="#0f1629" stroke="#2a2a4a" rx="8" opacity="0.9"/>
  <text x="760" y="698" font-size="11" font-weight="700" fill="#4ade80" text-anchor="middle">DAYS 4-5: MELBOURNE CITY DAYS</text>
  <text x="760" y="714" font-size="10" fill="#e8e8f0" text-anchor="middle">Day 4: QVM → Laneways (Hosier Lane) → Fed Square → NGV · Free tram zone</text>
  <text x="760" y="730" font-size="10" fill="#e8e8f0" text-anchor="middle">Day 5: Fitzroy (Brunswick St coffee) → Tram 96 to St Kilda → Acland St bakeries</text>
  <text x="760" y="746" font-size="9" fill="#888888" text-anchor="middle">Myki Zone 1 covers all of these · Free Tram Zone in CBD means no Myki needed on most trams</text>

  <!-- Day labels -->
  <text x="870" y="115" font-size="10" fill="#f97316" font-weight="700">Day 2 · Jul 2</text>
  <text x="870" y="130" font-size="9" fill="#f97316aa">Great Ocean Road</text>

  <text x="870" y="155" font-size="10" fill="#fbbf24" font-weight="700">Day 3 · Jul 3</text>
  <text x="870" y="170" font-size="9" fill="#fbbf24aa">Sovereign Hill · Ballarat</text>

  <text x="870" y="195" font-size="10" fill="#a78bfa" font-weight="700">Day 6 · Jul 6</text>
  <text x="870" y="210" font-size="9" fill="#a78bfaaa">Puffing Billy + Phillip Is.</text>
  <text x="870" y="225" font-size="9" fill="#3b82f6aa">Penguin Parade at sunset</text>

  <text x="870" y="250" font-size="10" fill="#a855f7" font-weight="700">Days 7-8 · Jul 7-8</text>
  <text x="870" y="265" font-size="9" fill="#a855f7aa">Mornington Peninsula</text>
  <text x="870" y="280" font-size="9" fill="#f472b6aa">Hot Springs Day 8</text>

  <text x="870" y="305" font-size="10" fill="#06b6d4" font-weight="700">Day 9 · Jul 9</text>
  <text x="870" y="320" font-size="9" fill="#06b6d4aa">Yarra Valley · Self-drive</text>
  <text x="870" y="335" font-size="9" fill="#34d399aa">Healesville Sanctuary</text>

  <!-- Road distance annotations -->
  <text x="590" y="340" font-size="9" fill="#f9731688">→ 95km</text>
  <text x="530" y="370" font-size="9" fill="#fbbf2488">→ 115km</text>
  <text x="680" y="345" font-size="9" fill="#a78bfa88">→ 90km</text>
  <text x="720" y="375" font-size="9" fill="#a855f788">→ 75km</text>
  <text x="730" y="330" font-size="9" fill="#06b6d488">→ 60km</text>

  <!-- Scale bar -->
  <line x1="40" y1="755" x2="140" y2="755" stroke="#666688" stroke-width="1.5"/>
  <line x1="40" y1="750" x2="40" y2="760" stroke="#666688" stroke-width="1.5"/>
  <line x1="140" y1="750" x2="140" y2="760" stroke="#666688" stroke-width="1.5"/>
  <text x="90" y="770" font-size="9" fill="#666688" text-anchor="middle">~100 km</text>

  <!-- Footer -->
  <text x="500" y="770" font-size="9" fill="#333355" text-anchor="middle">Map data: Wikipedia coordinates · Approximate routes · For trip planning only</text>
</svg>
